<?xml version="1.0" encoding="UTF-8" standalone="no"?>
<!DOCTYPE svg PUBLIC "-//W3C//DTD SVG 1.1//EN" "http://www.w3.org/Graphics/SVG/1.1/DTD/svg11.dtd">
<svg width="100%" height="100%" viewBox="0 0 72 72" version="1.1" xmlns="http://www.w3.org/2000/svg" xmlns:xlink="http://www.w3.org/1999/xlink" xml:space="preserve" xmlns:serif="http://www.serif.com/" style="fill-rule:evenodd;clip-rule:evenodd;stroke-linejoin:round;stroke-miterlimit:2;">
    <g transform="matrix(1,0,0,1,-1017,-849)">
        <g>
            <g transform="matrix(1,0,0,1,0.229289,0.0344865)">
                <path d="M1069.7,877.26C1069.7,874.887 1067.78,872.96 1065.4,872.96L1040.25,872.96C1037.88,872.96 1035.95,874.887 1035.95,877.26L1035.95,902.408C1035.95,904.782 1037.88,906.709 1040.25,906.709L1065.4,906.709C1067.78,906.709 1069.7,904.782 1069.7,902.408L1069.7,877.26Z" style="fill:white;"/>
            </g>
            <path d="M1066.05,883.666C1066.05,882.923 1065.45,882.321 1064.71,882.321L1041.53,882.321C1040.79,882.321 1040.19,882.923 1040.19,883.666L1040.19,901.469C1040.19,902.211 1040.79,902.814 1041.53,902.814L1064.71,902.814C1065.45,902.814 1066.05,902.211 1066.05,901.469L1066.05,883.666Z" style="fill:black"/>
            <g transform="matrix(1,0,0,1,17.8907,0.248241)">
                <path d="M1046.03,870.975C1046.03,869.881 1045.14,868.993 1044.05,868.993C1042.96,868.993 1042.07,869.881 1042.07,870.975L1042.07,873.152C1042.07,874.246 1042.96,875.134 1044.05,875.134C1045.14,875.134 1046.03,874.246 1046.03,873.152L1046.03,870.975Z" style="fill:white;"/>
            </g>
            <g transform="matrix(1,0,0,1,-0.0170879,0.248241)">
                <path d="M1046.03,870.975C1046.03,869.881 1045.14,868.993 1044.05,868.993C1042.96,868.993 1042.07,869.881 1042.07,870.975L1042.07,873.152C1042.07,874.246 1042.96,875.134 1044.05,875.134C1045.14,875.134 1046.03,874.246 1046.03,873.152L1046.03,870.975Z" style="fill:white;"/>
            </g>
            <g transform="matrix(0.525294,0,0,0.525294,610.366,427.23)">
                <path d="M833.028,875.19C833.028,874.139 832.175,873.286 831.124,873.286L827.315,873.286C826.264,873.286 825.411,874.139 825.411,875.19L825.411,878.998C825.411,880.049 826.264,880.903 827.315,880.903L831.124,880.903C832.175,880.903 833.028,880.049 833.028,878.998L833.028,875.19Z" style="fill:white;"/>
            </g>
            <g transform="matrix(0.525294,0,0,0.525294,617.461,427.23)">
                <path d="M833.028,875.19C833.028,874.139 832.175,873.286 831.124,873.286L827.315,873.286C826.264,873.286 825.411,874.139 825.411,875.19L825.411,878.998C825.411,880.049 826.264,880.903 827.315,880.903L831.124,880.903C832.175,880.903 833.028,880.049 833.028,878.998L833.028,875.19Z" style="fill:white;"/>
            </g>
            <g transform="matrix(0.525294,0,0,0.525294,624.381,427.23)">
                <path d="M833.028,875.19C833.028,874.139 832.175,873.286 831.124,873.286L827.315,873.286C826.264,873.286 825.411,874.139 825.411,875.19L825.411,878.998C825.411,880.049 826.264,880.903 827.315,880.903L831.124,880.903C832.175,880.903 833.028,880.049 833.028,878.998L833.028,875.19Z" style="fill:white;"/>
            </g>
        </g>
    </g>
</svg>
