<?xml version="1.0" encoding="UTF-8" standalone="no"?>
<!DOCTYPE svg PUBLIC "-//W3C//DTD SVG 1.1//EN" "http://www.w3.org/Graphics/SVG/1.1/DTD/svg11.dtd">
<svg width="100%" height="100%" viewBox="0 0 72 72" version="1.1" xmlns="http://www.w3.org/2000/svg" xmlns:xlink="http://www.w3.org/1999/xlink" xml:space="preserve" xmlns:serif="http://www.serif.com/" style="fill-rule:evenodd;clip-rule:evenodd;stroke-linejoin:round;stroke-miterlimit:2;">
    <g transform="matrix(1,0,0,1,-915,-849)">
        <path d="M939.693,885.703C940.587,884.848 942.568,883.689 944.6,885.922C945.467,886.875 946.444,887.943 947.275,888.688C947.807,889.167 949.125,889.157 949.532,888.568C950.884,886.605 954.21,879.635 955.5,876.825C956.214,875.269 958.62,874.975 960.094,875.738C961.398,876.413 962.158,878.624 961.644,879.893C960.227,883.394 954.097,893.525 952.056,896.943C951.017,898.684 948.251,898.673 946.726,897.208C945.276,895.814 940.577,891.407 939.092,889.72C938.049,888.534 938.729,886.625 939.693,885.703Z" style="fill:white;"/>
    </g>
</svg>
