<?xml version="1.0" encoding="UTF-8" standalone="no"?>
<!DOCTYPE svg PUBLIC "-//W3C//DTD SVG 1.1//EN" "http://www.w3.org/Graphics/SVG/1.1/DTD/svg11.dtd">
<svg width="100%" height="100%" viewBox="0 0 72 72" version="1.1" xmlns="http://www.w3.org/2000/svg" xmlns:xlink="http://www.w3.org/1999/xlink" xml:space="preserve" xmlns:serif="http://www.serif.com/" style="fill-rule:evenodd;clip-rule:evenodd;stroke-linejoin:round;stroke-miterlimit:2;">
    <g transform="matrix(1,0,0,1,-804,-849)">
        <g>
            <g transform="matrix(1,0,0,1,-0.0984375,-0.0734375)">
                <path d="M833.028,875.19C833.028,874.139 832.175,873.286 831.124,873.286L827.315,873.286C826.264,873.286 825.411,874.139 825.411,875.19L825.411,878.998C825.411,880.049 826.264,880.903 827.315,880.903L831.124,880.903C832.175,880.903 833.028,880.049 833.028,878.998L833.028,875.19Z" style="fill:white;"/>
            </g>
            <g transform="matrix(1,0,0,1,10.9038,-0.0734375)">
                <path d="M833.028,875.19C833.028,874.139 832.175,873.286 831.124,873.286L827.315,873.286C826.264,873.286 825.411,874.139 825.411,875.19L825.411,878.998C825.411,880.049 826.264,880.903 827.315,880.903L831.124,880.903C832.175,880.903 833.028,880.049 833.028,878.998L833.028,875.19Z" style="fill:white;"/>
            </g>
            <g transform="matrix(1,0,0,1,21.8942,-0.0734375)">
                <path d="M833.028,875.19C833.028,874.139 832.175,873.286 831.124,873.286L827.315,873.286C826.264,873.286 825.411,874.139 825.411,875.19L825.411,878.998C825.411,880.049 826.264,880.903 827.315,880.903L831.124,880.903C832.175,880.903 833.028,880.049 833.028,878.998L833.028,875.19Z" style="fill:white;"/>
            </g>
            <g transform="matrix(1,0,0,1,-0.0984375,10.912)">
                <path d="M833.028,875.19C833.028,874.139 832.175,873.286 831.124,873.286L827.315,873.286C826.264,873.286 825.411,874.139 825.411,875.19L825.411,878.998C825.411,880.049 826.264,880.903 827.315,880.903L831.124,880.903C832.175,880.903 833.028,880.049 833.028,878.998L833.028,875.19Z" style="fill:white;"/>
            </g>
            <g transform="matrix(1,0,0,1,10.9038,10.912)">
                <path d="M833.028,875.19C833.028,874.139 832.175,873.286 831.124,873.286L827.315,873.286C826.264,873.286 825.411,874.139 825.411,875.19L825.411,878.998C825.411,880.049 826.264,880.903 827.315,880.903L831.124,880.903C832.175,880.903 833.028,880.049 833.028,878.998L833.028,875.19Z" style="fill:white;"/>
            </g>
            <g transform="matrix(1,0,0,1,21.8942,10.912)">
                <path d="M833.028,875.19C833.028,874.139 832.175,873.286 831.124,873.286L827.315,873.286C826.264,873.286 825.411,874.139 825.411,875.19L825.411,878.998C825.411,880.049 826.264,880.903 827.315,880.903L831.124,880.903C832.175,880.903 833.028,880.049 833.028,878.998L833.028,875.19Z" style="fill:white;"/>
            </g>
            <g transform="matrix(1,0,0,1,-0.0984375,21.8926)">
                <path d="M833.028,875.19C833.028,874.139 832.175,873.286 831.124,873.286L827.315,873.286C826.264,873.286 825.411,874.139 825.411,875.19L825.411,878.998C825.411,880.049 826.264,880.903 827.315,880.903L831.124,880.903C832.175,880.903 833.028,880.049 833.028,878.998L833.028,875.19Z" style="fill:white;"/>
            </g>
            <g transform="matrix(1,0,0,1,10.9038,21.8926)">
                <path d="M833.028,875.19C833.028,874.139 832.175,873.286 831.124,873.286L827.315,873.286C826.264,873.286 825.411,874.139 825.411,875.19L825.411,878.998C825.411,880.049 826.264,880.903 827.315,880.903L831.124,880.903C832.175,880.903 833.028,880.049 833.028,878.998L833.028,875.19Z" style="fill:white;"/>
            </g>
            <g transform="matrix(1,0,0,1,21.8942,21.8926)">
                <path d="M833.028,875.19C833.028,874.139 832.175,873.286 831.124,873.286L827.315,873.286C826.264,873.286 825.411,874.139 825.411,875.19L825.411,878.998C825.411,880.049 826.264,880.903 827.315,880.903L831.124,880.903C832.175,880.903 833.028,880.049 833.028,878.998L833.028,875.19Z" style="fill:white;"/>
            </g>
        </g>
    </g>
</svg>
