<?xml version="1.0" encoding="UTF-8" standalone="no"?>
<!DOCTYPE svg PUBLIC "-//W3C//DTD SVG 1.1//EN" "http://www.w3.org/Graphics/SVG/1.1/DTD/svg11.dtd">
<svg width="100%" height="100%" viewBox="0 0 158 75" version="1.1" xmlns="http://www.w3.org/2000/svg" xmlns:xlink="http://www.w3.org/1999/xlink" xml:space="preserve" xmlns:serif="http://www.serif.com/" style="fill-rule:evenodd;clip-rule:evenodd;stroke-linecap:round;stroke-linejoin:round;stroke-miterlimit:1.5;">
    <g transform="matrix(1,0,0,1,-789,-651)">
        <g transform="matrix(0.839471,0,0,0.703676,138.606,208.357)">
            <path d="M776.813,697.297C787.906,697.425 803.83,699.006 810.092,697.681C813.15,697.034 813.204,689.038 814.385,689.345C815.567,689.652 816.553,702.982 817.182,699.521C818.911,690.008 821.715,627.13 824.759,632.27C827.803,637.409 832.6,719.491 835.445,730.359C838.272,741.159 840.155,702.252 841.828,697.482C842.447,695.718 844.828,703.487 845.483,701.736C846.738,698.384 848.176,678.333 849.355,677.37C850.535,676.407 851.751,693.621 852.562,695.957C853.095,697.489 853.674,691.121 854.222,691.383C854.77,691.645 855.045,696.491 855.852,697.529C856.509,698.374 858.295,697.803 859.064,697.607C859.671,697.452 859.992,696.378 860.463,696.351C860.934,696.323 861.29,697.423 861.888,697.442C867.377,697.613 887.372,698.348 893.399,697.378C895.834,696.985 896.689,691.179 898.049,691.62C899.409,692.061 900.835,702.971 901.561,700.023C903.363,692.704 906.574,644.452 908.864,647.706C911.154,650.961 913.437,711.236 915.303,719.55C916.942,726.858 918.841,700.596 920.055,697.587C920.635,696.148 921.916,702.894 922.584,701.494C923.766,699.014 925.741,683.804 927.149,682.706C928.556,681.608 929.942,693.314 931.031,694.906C931.737,695.938 932.506,691.838 933.684,692.255C935.07,692.747 936.748,697.323 939.35,697.854C943.911,698.783 953.817,697.84 961.05,697.833" style="fill:none;stroke:black;stroke-width:1.94px;"/>
        </g>
    </g>
</svg>
