<?xml version="1.0" encoding="UTF-8" standalone="no"?>
<!DOCTYPE svg PUBLIC "-//W3C//DTD SVG 1.1//EN" "http://www.w3.org/Graphics/SVG/1.1/DTD/svg11.dtd">
<svg width="100%" height="100%" viewBox="0 0 98 98" version="1.1" xmlns="http://www.w3.org/2000/svg" xmlns:xlink="http://www.w3.org/1999/xlink" xml:space="preserve" xmlns:serif="http://www.serif.com/" style="fill-rule:evenodd;clip-rule:evenodd;stroke-linejoin:round;stroke-miterlimit:2;">
    <g transform="matrix(1,0,0,1,-809,-391)">
        <path d="M817.431,394.15C817.431,392.999 816.496,392.065 815.346,392.065L815.188,392.065C814.038,392.065 813.104,392.999 813.104,394.15L813.104,485.417C813.104,486.567 814.038,487.501 815.188,487.501L815.346,487.501C816.496,487.501 817.431,486.567 817.431,485.417L817.431,394.15Z" style="fill:white;"/>
        <path d="M834.199,406.624C834.199,405.522 833.304,404.628 832.202,404.628C831.1,404.628 830.205,405.522 830.205,406.624L830.205,474.108C830.205,475.21 831.1,476.104 832.202,476.104C833.304,476.104 834.199,475.21 834.199,474.108L834.199,406.624Z" style="fill:white;"/>
        <path d="M850.942,421.887C850.942,420.819 850.075,419.952 849.007,419.952C847.94,419.952 847.073,420.819 847.073,421.887L847.073,458.056C847.073,459.124 847.94,459.991 849.007,459.991C850.075,459.991 850.942,459.124 850.942,458.056L850.942,421.887Z" style="fill:white;"/>
        <path d="M867.803,411.526C867.803,410.458 866.936,409.591 865.868,409.591L865.754,409.591C864.686,409.591 863.819,410.458 863.819,411.526L863.819,468.611C863.819,469.679 864.686,470.546 865.754,470.546L865.868,470.546C866.936,470.546 867.803,469.679 867.803,468.611L867.803,411.526Z" style="fill:white;"/>
        <path d="M885.256,427.371C885.256,426.383 884.454,425.581 883.466,425.581L883.042,425.581C882.054,425.581 881.252,426.383 881.252,427.371L881.252,454.376C881.252,455.363 882.054,456.165 883.042,456.165L883.466,456.165C884.454,456.165 885.256,455.363 885.256,454.376L885.256,427.371Z" style="fill:white;"/>
        <path d="M902.497,408.016C902.497,406.98 901.656,406.139 900.62,406.139L900.366,406.139C899.33,406.139 898.489,406.98 898.489,408.016L898.489,471.986C898.489,473.021 899.33,473.862 900.366,473.862L900.62,473.862C901.656,473.862 902.497,473.021 902.497,471.986L902.497,408.016Z" style="fill:white;"/>
    </g>
</svg>
